<svg width="25" height="24" viewBox="0 0 25 24" fill="none" xmlns="http://www.w3.org/2000/svg">
<g id="buy">
<g id="Buy">
<path id="Buy_2" fill-rule="evenodd" clip-rule="evenodd" d="M14.1506 11.2331H16.9184C17.3381 11.2331 17.6679 10.8861 17.6679 10.4677C17.6679 10.0391 17.3381 9.70236 16.9184 9.70236H14.1506C13.7309 9.70236 13.4012 10.0391 13.4012 10.4677C13.4012 10.8861 13.7309 11.2331 14.1506 11.2331ZM20.2059 5.92749C20.8154 5.92749 21.2151 6.1418 21.6148 6.61123C22.0145 7.08067 22.0844 7.7542 21.9945 8.36549L21.0452 15.06C20.8654 16.3469 19.7862 17.2949 18.5172 17.2949H7.61568C6.28672 17.2949 5.18758 16.255 5.07766 14.908L4.15838 3.7834L2.64956 3.51807C2.24987 3.44664 1.97009 3.04864 2.04003 2.64043C2.10998 2.22305 2.49967 1.94649 2.90935 2.00874L5.2925 2.3751C5.63223 2.43735 5.88204 2.72207 5.91201 3.06905L6.10186 5.35499C6.13184 5.68257 6.39164 5.92749 6.71139 5.92749H20.2059ZM7.45561 18.9079C6.61626 18.9079 5.93679 19.6018 5.93679 20.459C5.93679 21.3061 6.61626 22 7.45561 22C8.28496 22 8.96443 21.3061 8.96443 20.459C8.96443 19.6018 8.28496 18.9079 7.45561 18.9079ZM18.6968 18.9079C17.8575 18.9079 17.178 19.6018 17.178 20.459C17.178 21.3061 17.8575 22 18.6968 22C19.5262 22 20.2057 21.3061 20.2057 20.459C20.2057 19.6018 19.5262 18.9079 18.6968 18.9079Z" fill="#7f7f7f"/>
</g>
</g>
</svg>
